<svg width="16" height="16" viewBox="0 0 16 16" fill="none" xmlns="http://www.w3.org/2000/svg">
<g clip-path="url(#clip0_1_2)">
<path d="M8.472 0L7.192 0.003C5.172 0.259 3.513 1.107 2.521 2.389C1.685 3.47 1.36 4.78 1.553 6.283C1.923 9.153 4.326 13.131 6.227 14.769C6.702 15.179 7.308 15.563 7.58 15.668C7.709 15.712 7.804 15.741 7.913 15.741C8.023 15.741 8.13 15.71 8.232 15.65C9.466 15.047 10.67 13.77 12.02 11.63C12.956 10.145 14.052 8.176 14.22 6.135C14.492 2.843 12.295 0.492 8.472 0ZM8.435 0.69C11.866 1.137 13.772 3.152 13.532 6.081C13.376 7.994 12.261 9.956 11.435 11.263C10.157 13.29 9.04 14.489 7.914 15.04C7.909 15.042 7.905 15.044 7.902 15.045C7.873 15.039 7.834 15.024 7.815 15.018C7.666 14.961 7.109 14.617 6.68 14.247C4.909 12.722 2.585 8.872 2.24 6.195C2.07 4.879 2.348 3.741 3.068 2.812C3.946 1.677 5.431 0.923 7.236 0.692L8.435 0.69Z" fill="#EAFFEA"/>
<path d="M3.504 6.83C3.421 6.857 3.37 6.913 3.373 7.024C3.681 8.962 4.989 10.56 7.215 10.15C7.002 8.019 5.745 6.933 3.504 6.83Z" fill="#EAFFEA"/>
<path d="M8.778 10.215C10.974 10.09 12.388 8.836 12.554 6.896C10.321 6.727 8.55 7.923 8.778 10.215Z" fill="#EAFFEA"/>
</g>
<defs>
<clipPath id="clip0_1_2">
<rect width="15.741" height="15.741" fill="white"/>
</clipPath>
</defs>
</svg>
