<svg width="14" height="16" viewBox="0 0 14 16" fill="none" xmlns="http://www.w3.org/2000/svg">
<path d="M7.472 0L6.192 0.003C4.172 0.259 2.513 1.107 1.521 2.389C0.685 3.47 0.36 4.78 0.553 6.283C0.923 9.153 3.326 13.131 5.227 14.769C5.702 15.179 6.308 15.563 6.58 15.668C6.709 15.712 6.804 15.741 6.913 15.741C7.023 15.741 7.13 15.71 7.232 15.65C8.466 15.047 9.67 13.77 11.02 11.63C11.956 10.145 13.052 8.176 13.22 6.135C13.492 2.843 11.295 0.492 7.472 0ZM7.435 0.69C10.866 1.137 12.772 3.152 12.532 6.081C12.376 7.994 11.261 9.956 10.435 11.263C9.157 13.29 8.04 14.489 6.914 15.04C6.909 15.042 6.905 15.044 6.902 15.045C6.873 15.039 6.834 15.024 6.815 15.018C6.666 14.961 6.109 14.617 5.68 14.247C3.909 12.722 1.585 8.872 1.24 6.195C1.07 4.879 1.348 3.741 2.068 2.812C2.946 1.677 4.431 0.923 6.236 0.692L7.435 0.69Z" fill="white" fill-opacity="0.5"/>
<path d="M2.504 6.83C2.421 6.857 2.37 6.913 2.373 7.024C2.681 8.962 3.989 10.56 6.215 10.15C6.002 8.019 4.745 6.933 2.504 6.83Z" fill="white" fill-opacity="0.5"/>
<path d="M7.778 10.215C9.974 10.09 11.388 8.836 11.554 6.896C9.321 6.727 7.55 7.923 7.778 10.215Z" fill="white" fill-opacity="0.5"/>
</svg>
